<svg enable-background="new 0 0 300 110" viewBox="0 0 300 110" xmlns="http://www.w3.org/2000/svg"><g fill="#fff"><path d="m85.6 57.3h-9.4v-34.5h9.4v31.2z"/><path d="m80.9 19c-3 0-5.3-2.3-5.3-5.3 0-2.9 2.4-5.2 5.3-5.2 3 0 5.4 2.3 5.4 5.2 0 3-2.4 5.3-5.4 5.3"/><path d="m178.5 58c-5.3 0-9.7-1.8-12.7-5.3-2.8-3.1-4.3-7.6-4.3-12.5 0-5.1 1.8-9.7 5.1-13s7.8-5.2 12.8-5.2c3.9 0 7 .9 10 2.5l-.3 7.7c-2.4-1.8-5.5-2.9-8.7-2.9-5.5 0-9.5 4.4-9.5 10.4 0 4.8 2.5 10.5 9.4 10.5 3.3 0 6.2-1.4 8.1-2.5l2.4 6.7c-2.4 1.8-7.4 3.6-12.3 3.6"/><path d="m44.9 57.3h-9.9l-4.6-11.8h-16.2l-4.4 11.8h-9.4l18.5-47.9h6.8zm-27.8-19.6h10.2l-3.6-10.2c-.6-1.6-1-3-1.4-4.4-.3 1.2-.8 2.6-1.4 4.2z"/><path d="m73.4 22.8h-9.4l-8.3 22.3-8.2-22.3h-9.4l12.6 30.7c.9 2.4 2.4 3.8 5.1 3.8h3.2z"/><path d="m101.6 58c-6.7 0-11.4-4.6-11.4-11.2 0-7 5.3-11.1 14.5-11.4l5.6-.2v-.5c0-4.4-3.4-5.3-6.2-5.3s-5.6.8-8.6 2.7l-3.2-6.1c3.7-2.5 8.5-4 13.7-4 9.3 0 13.8 4.1 13.8 12.6v15.8c0 3 .3 5.1.8 6.9h-5.4c-2.3 0-3.2-.9-3.9-2.8-2.8 2.4-5.9 3.5-9.7 3.5m8.7-16.1-4.4.1c-5.6.2-6.3 2.4-6.3 4.1 0 2.7 1.9 4.3 5.1 4.3 2.2 0 4.1-.6 5.6-1.9z"/><path d="m204.3 58c-6.7 0-11.4-4.6-11.4-11.2 0-7 5.3-11.1 14.5-11.4l5.6-.2v-.5c0-4.4-3.4-5.3-6.2-5.3s-5.6.8-8.6 2.7l-3.2-6.1c3.7-2.5 8.5-4 13.7-4 9.3 0 13.8 4.1 13.8 12.6v15.8c0 3 .3 5.1.8 6.9h-5.4c-2.3 0-3.2-.9-3.9-2.8-2.8 2.4-6 3.5-9.7 3.5m8.6-16.1-4.4.1c-5.6.2-6.3 2.4-6.3 4.1 0 2.7 1.9 4.3 5.1 4.3 2.2 0 4.1-.6 5.6-1.9z"/><path d="m157.4 57.3h-9.4v-20.2c0-4.8-1.4-6.9-4.6-6.9-2.5 0-5.1 1.1-8.1 3.3v23.7h-9.3v-34.4h3.6c2.7 0 4.4 1 5.2 3.2l.1.2c4-2.9 7.6-4.1 11.6-4.1 5.3 0 11 3.3 11 12.5v22.7z"/><path d="m286.3 56.3c-1.2-3.6-4.8-6.3-17.5-7.3 2 2.4 4.2 4.6 6.4 6.7h6.5c2.7 0 3.9.3 4.6.6"/><path d="m237.4 19.5c-.6 13.8 6.8 27.7 31.2 29.5h.2c-12.4-14.4-20.8-32.8-24.1-48.1 0 0-6.8 6-7.3 18.6"/><path d="m275.2 55.7h-26.2c.3.8 1.6 1.4 4.3 1.5 16.4 1 18.7 13.8 42.1 13.8 2.1 0 3.3-.1 4.6-.4-9.2-2.7-17.6-8.1-24.8-14.9"/><path d="m70.7 73.3c2.1-.3 4.8-.6 8.3-.6 4.3 0 7.4 1 9.4 2.8 1.8 1.6 2.9 4 2.9 7s-.9 5.4-2.6 7.2c-2.3 2.4-6 3.7-10.3 3.7-1.3 0-2.5 0-3.5-.3v13.4h-4.3v-33.2zm4.3 16.2c.9.2 2.1.3 3.6.3 5.2 0 8.4-2.5 8.4-7.2 0-4.4-3.1-6.6-7.9-6.6-1.9 0-3.3.1-4.1.3z"/><path d="m107.1 106.4-.3-3h-.1c-1.3 1.9-3.9 3.6-7.4 3.6-4.9 0-7.4-3.4-7.4-6.9 0-5.8 5.2-9 14.5-9v-.5c0-2-.5-5.6-5.5-5.6-2.2 0-4.6.7-6.3 1.8l-1-2.9c2-1.3 4.9-2.1 7.9-2.1 7.4 0 9.2 5 9.2 9.9v9c0 2.1.1 4.1.4 5.8h-4zm-.7-12.3c-4.8-.1-10.2.7-10.2 5.4 0 2.8 1.9 4.2 4.1 4.2 3.1 0 5.1-2 5.8-4 .1-.4.2-.9.2-1.4v-4.2z"/><path d="m115.7 89.9c0-2.8 0-5.3-.2-7.5h3.8l.1 4.7h.2c1.1-3.2 3.7-5.3 6.7-5.3.5 0 .8 0 1.2.1v4.1c-.4-.1-.9-.1-1.5-.1-3.1 0-5.3 2.3-5.9 5.6-.1.6-.2 1.3-.2 2v12.8h-4.3v-16.4z"/><path d="m136.5 75.4v6.9h6.3v3.3h-6.3v13c0 3 .8 4.7 3.3 4.7 1.1 0 2-.1 2.5-.3l.2 3.3c-.8.3-2.2.6-3.9.6-2 0-3.7-.6-4.7-1.8-1.2-1.3-1.7-3.4-1.7-6.3v-13.1h-3.7v-3.3h3.7v-5.8z"/><path d="m145.7 88.9c0-2.5 0-4.5-.2-6.5h3.9l.2 4h.1c1.2-2.3 4-4.5 8-4.5 3.3 0 8.5 2 8.5 10.3v14.4h-4.4v-14.1c0-3.9-1.4-7.1-5.6-7.1-2.9 0-5.1 2-5.9 4.5-.2.5-.3 1.3-.3 2v14.5h-4.4v-17.5z"/><path d="m173.7 95.2c.1 5.9 3.9 8.4 8.3 8.4 3.1 0 5-.5 6.7-1.2l.7 3.1c-1.5.7-4.2 1.5-8 1.5-7.4 0-11.8-4.9-11.8-12.1 0-7.3 4.3-13 11.3-13 7.9 0 10 6.9 10 11.3 0 .9-.1 1.6-.1 2zm12.9-3.2c0-2.8-1.1-7.1-6.1-7.1-4.4 0-6.4 4.1-6.7 7.1z"/><path d="m194.2 89.9c0-2.8 0-5.3-.2-7.5h3.8l.1 4.7h.2c1.1-3.2 3.7-5.3 6.7-5.3.5 0 .8 0 1.2.1v4.1c-.4-.1-.9-.1-1.5-.1-3.1 0-5.3 2.3-5.9 5.6-.1.6-.2 1.3-.2 2v12.8h-4.3v-16.4z"/><path d="m207.9 101.9c1.3.8 3.6 1.7 5.8 1.7 3.2 0 4.7-1.6 4.7-3.6 0-2.1-1.2-3.2-4.5-4.4-4.3-1.5-6.4-3.9-6.4-6.8 0-3.9 3.1-7.1 8.3-7.1 2.4 0 4.6.7 5.9 1.5l-1.1 3.2c-.9-.6-2.7-1.4-4.9-1.4-2.6 0-4 1.5-4 3.3 0 2 1.4 2.9 4.6 4.1 4.2 1.6 6.3 3.7 6.3 7.3 0 4.2-3.3 7.2-9 7.2-2.6 0-5.1-.6-6.8-1.6z"/></g></svg>