<?xml version="1.0" encoding="utf-8"?>
<!-- Generator: Adobe Illustrator 16.0.0, SVG Export Plug-In . SVG Version: 6.00 Build 0)  -->
<!DOCTYPE svg PUBLIC "-//W3C//DTD SVG 1.1//EN" "http://www.w3.org/Graphics/SVG/1.1/DTD/svg11.dtd">
<svg version="1.1" id="Layer_1" xmlns="http://www.w3.org/2000/svg" xmlns:xlink="http://www.w3.org/1999/xlink" x="0px" y="0px"
	 width="517.085px" height="211.559px" viewBox="0 0 517.085 211.559" enable-background="new 0 0 517.085 211.559"
	 xml:space="preserve">
<g>
	<g>
		
			<linearGradient id="SVGID_1_" gradientUnits="userSpaceOnUse" x1="450.6851" y1="150.5068" x2="588.1763" y2="150.5068" gradientTransform="matrix(0 -1 1 0 226.4883 616.6948)">
			<stop  offset="0" style="stop-color:#F7941E"/>
			<stop  offset="0.4283" style="stop-color:#F7951E;stop-opacity:0.5717"/>
			<stop  offset="0.5826" style="stop-color:#F4991F;stop-opacity:0.4174"/>
			<stop  offset="0.6926" style="stop-color:#F1A01F;stop-opacity:0.3074"/>
			<stop  offset="0.7815" style="stop-color:#EDAB20;stop-opacity:0.2185"/>
			<stop  offset="0.8576" style="stop-color:#E9B820;stop-opacity:0.1424"/>
			<stop  offset="0.925" style="stop-color:#E2C821;stop-opacity:0.075"/>
			<stop  offset="0.9845" style="stop-color:#D9D823;stop-opacity:0.0155"/>
			<stop  offset="1" style="stop-color:#D7DF23;stop-opacity:0"/>
		</linearGradient>
		<ellipse fill="url(#SVGID_1_)" cx="376.995" cy="97.264" rx="69.471" ry="68.746"/>
		<ellipse opacity="0.75" fill="#D7DF23" cx="376.992" cy="97.264" rx="69.47" ry="46.707"/>
		<ellipse opacity="0.75" fill="#FFFFFF" cx="376.992" cy="97.263" rx="69.47" ry="21.709"/>
		<ellipse opacity="0.75" fill="#FFFFFF" cx="377.065" cy="97.175" rx="46.708" ry="69.467"/>
		<path opacity="0.75" fill="#FFFFFF" d="M398.771,97.175c0,38.366-9.719,69.467-21.708,69.467s-21.71-31.102-21.71-69.467
			c0-38.368,9.721-69.473,21.713-69.473C389.055,27.703,398.771,58.807,398.771,97.175z"/>
		
			<linearGradient id="SVGID_2_" gradientUnits="userSpaceOnUse" x1="432.9312" y1="18.2861" x2="570.4243" y2="18.2861" gradientTransform="matrix(0 1 -1 0 394.6948 -404.4888)">
			<stop  offset="0" style="stop-color:#F7941E"/>
			<stop  offset="0.0753" style="stop-color:#EEA720;stop-opacity:0.9247"/>
			<stop  offset="0.1634" style="stop-color:#E8B920;stop-opacity:0.8366"/>
			<stop  offset="0.2614" style="stop-color:#E2C721;stop-opacity:0.7386"/>
			<stop  offset="0.3716" style="stop-color:#DDD122;stop-opacity:0.6284"/>
			<stop  offset="0.5008" style="stop-color:#D9D823;stop-opacity:0.4992"/>
			<stop  offset="0.667" style="stop-color:#D7DD23;stop-opacity:0.333"/>
			<stop  offset="1" style="stop-color:#D7DF23;stop-opacity:0"/>
		</linearGradient>
		<ellipse fill="url(#SVGID_2_)" cx="376.409" cy="97.189" rx="69.471" ry="68.746"/>
	</g>
	<path fill="#DA2A2E" d="M32.133,134.818c0,0,156.217,32.889,294.775,2.58c141.956-25.797,164.369-52.881,158.934-59.975
		c-8.842-10.875-48.188-9.57-48.9-9.674c-0.716-0.104,55.014-7.738,60.449,12.898c5.291,19.24-48.225,35.469-60.449,40.629
		C424.713,126.434,241.327,191.568,32.133,134.818z"/>
	<g>
		
			<image overflow="visible" opacity="0.75" width="1265" height="421" xlink:href="60A692BD9EDF30C9.png"  transform="matrix(0.3142 0 0 0.3142 18.9346 6.3169)">
		</image>
		<path fill="#2C2B6A" d="M66.167,59.226c2.333-1.811,5.253-2.716,8.76-2.716c2.402,0,4.529,0.56,6.379,1.68
			c1.849,1.12,3.468,2.831,4.858,5.126l7.305-5.556c-1.868-3.129-4.381-5.487-7.538-7.067c-3.158-1.578-6.928-2.368-11.311-2.368
			c-6.493,0-11.906,1.744-16.238,5.234c-4.331,3.49-6.738,8.006-7.224,13.549c-0.173,1.981-0.002,3.82,0.516,5.515
			c0.516,1.695,1.382,3.188,2.602,4.479c1.691,1.811,5.084,4.022,10.18,6.635c1.212,0.631,2.126,1.12,2.745,1.465
			c2.978,1.608,5.014,3.181,6.114,4.717c1.099,1.537,1.552,3.411,1.357,5.623c-0.273,3.132-1.666,5.674-4.174,7.627
			c-2.508,1.953-5.647,2.928-9.411,2.928c-3.02,0-5.583-0.767-7.688-2.304c-2.105-1.537-3.983-4.03-5.629-7.477l-8.342,5.73
			c1.805,4.224,4.411,7.369,7.818,9.438c3.405,2.066,7.64,3.102,12.706,3.102c7.466,0,13.53-1.76,18.19-5.277
			c4.657-3.519,7.249-8.267,7.771-14.24c0.337-3.849-0.375-7.104-2.14-9.76c-1.763-2.656-4.941-5.218-9.528-7.688
			c-0.774-0.432-1.909-1.005-3.404-1.723c-6.005-2.989-8.856-6.206-8.554-9.652C62.541,63.375,63.833,61.033,66.167,59.226z"/>
		<path fill="#FFFFFF" d="M59.955,115.242c-5.16,0-9.549-1.076-13.046-3.195c-3.51-2.133-6.229-5.411-8.08-9.742l-0.21-0.494
			l9.415-6.466l0.33,0.69c1.59,3.332,3.415,5.766,5.424,7.231c1.979,1.444,4.436,2.178,7.301,2.178c3.601,0,6.632-0.938,9.008-2.79
			c2.381-1.856,3.665-4.201,3.924-7.169c0.18-2.041-0.237-3.785-1.238-5.184c-1.037-1.448-3.019-2.971-5.892-4.523
			c-0.623-0.347-1.532-0.833-2.736-1.46c-5.208-2.671-8.597-4.885-10.356-6.768c-1.281-1.356-2.207-2.951-2.75-4.737
			c-0.539-1.762-0.722-3.701-0.542-5.762c0.5-5.702,3.012-10.413,7.466-14.003c4.429-3.568,10.03-5.378,16.648-5.378
			c4.463,0,8.367,0.819,11.603,2.437c3.255,1.63,5.882,4.091,7.807,7.318l0.3,0.502l-8.35,6.35l-0.377-0.623
			c-1.33-2.196-2.889-3.847-4.637-4.905c-1.738-1.052-3.77-1.585-6.04-1.585c-3.342,0-6.154,0.867-8.358,2.579
			c-2.204,1.707-3.389,3.852-3.627,6.561c-0.274,3.135,2.482,6.166,8.193,9.009c1.53,0.734,2.655,1.304,3.432,1.737
			c4.657,2.507,7.941,5.166,9.754,7.898c1.84,2.771,2.597,6.196,2.247,10.179c-0.538,6.139-3.239,11.086-8.029,14.705
			C73.784,113.422,67.532,115.242,59.955,115.242z M40.248,102.281c1.733,3.833,4.201,6.738,7.34,8.645
			c3.289,1.995,7.449,3.007,12.367,3.007c7.286,0,13.273-1.731,17.795-5.147c4.482-3.385,7.01-8.019,7.514-13.774
			c0.323-3.679-0.361-6.821-2.033-9.34c-1.693-2.55-4.819-5.065-9.293-7.474c-0.762-0.426-1.864-0.983-3.378-1.709
			c-6.25-3.112-9.249-6.575-8.923-10.301c0.267-3.049,1.656-5.565,4.129-7.481c2.439-1.892,5.521-2.852,9.161-2.852
			c2.513,0,4.773,0.597,6.718,1.774c1.76,1.066,3.336,2.657,4.692,4.733l6.263-4.764c-1.764-2.765-4.103-4.89-6.962-6.32
			c-3.053-1.525-6.76-2.299-11.018-2.299c-6.311,0-11.636,1.712-15.827,5.089c-4.167,3.357-6.516,7.763-6.983,13.097
			c-0.165,1.893,0,3.665,0.49,5.266c0.484,1.592,1.309,3.012,2.452,4.222c1.635,1.75,4.999,3.936,10.003,6.502
			c1.224,0.638,2.143,1.129,2.765,1.477c3.085,1.666,5.157,3.273,6.327,4.908c1.188,1.661,1.685,3.7,1.478,6.06
			c-0.289,3.304-1.777,6.027-4.424,8.088c-2.612,2.033-5.914,3.065-9.812,3.065c-3.149,0-5.866-0.818-8.074-2.432
			c-2.042-1.488-3.889-3.853-5.497-7.037L40.248,102.281z"/>
		<polygon fill="#2C2B6A" points="94.727,112.908 105.976,112.908 120.998,49.832 109.602,49.832 		"/>
		<path fill="#FFFFFF" d="M106.493,113.562H93.9l15.184-64.386h12.744L106.493,113.562z M95.554,112.254h9.905l14.71-61.768H110.12
			L95.554,112.254z"/>
		<path fill="#2C2B6A" d="M177.294,49.832L151.17,87.315c-0.743,1.063-1.521,2.26-2.334,3.598c-0.817,1.334-1.668,2.807-2.556,4.416
			c-0.082-0.917-0.216-1.974-0.404-3.168c-0.188-1.191-0.49-2.749-0.906-4.674l-8.047-37.655h-11.153l15.59,65.531l47.914-65.531
			H177.294z"/>
		<path fill="#FFFFFF" d="M141.052,116.895l-16.11-67.718h12.511l8.157,38.173c0.416,1.921,0.724,3.506,0.913,4.708
			c0.064,0.41,0.123,0.807,0.176,1.188c0.544-0.953,1.072-1.847,1.579-2.674c0.8-1.317,1.594-2.539,2.356-3.631l26.319-37.764
			h13.611L141.052,116.895z M126.599,50.486l15.071,63.345l46.315-63.345h-10.349L151.708,87.69
			c-0.747,1.07-1.524,2.268-2.312,3.563c-0.8,1.307-1.655,2.785-2.542,4.391l-1.035,1.876l-0.19-2.135
			c-0.081-0.905-0.215-1.956-0.399-3.123c-0.185-1.179-0.488-2.739-0.899-4.639l-7.936-37.139H126.599z"/>
		<polygon fill="#2C2B6A" points="180.974,112.908 220.995,112.908 223.206,103.815 194.249,103.815 199.007,83.437 227.964,83.437 
			230.053,74.605 201.195,74.605 204.874,58.75 233.831,58.75 235.88,49.832 195.857,49.832 		"/>
		<path fill="#FFFFFF" d="M221.51,113.562h-41.363l15.193-64.386h41.363l-2.351,10.228h-28.958l-3.376,14.546h28.862l-2.398,10.141
			h-28.956l-4.452,19.07h28.964L221.51,113.562z M181.801,112.254h38.68l1.892-7.784h-28.949l5.064-21.688h28.958l1.78-7.522
			h-28.855l3.983-17.165h28.956l1.748-7.609h-38.683L181.801,112.254z"/>
		<path fill="#2C2B6A" d="M332.456,49.832l-7.583,32.099c-0.103,0.401-0.256,1.018-0.458,1.851
			c-1.683,7.354-3.833,12.438-6.446,15.252c-2.01,2.184-4.369,3.807-7.074,4.868c-2.708,1.064-5.848,1.593-9.417,1.593
			c-4.871,0-8.51-1.069-10.919-3.209c-2.411-2.14-3.439-5.219-3.088-9.241c0.073-0.833,0.207-1.803,0.402-2.91
			c0.192-1.104,0.464-2.332,0.809-3.682l8.664-36.622h-11.252l-6.809,28.824c-0.811,3.303-1.469,6.29-1.978,8.962
			c-0.512,2.669-0.832,4.753-0.963,6.247c-0.591,6.75,1.084,11.905,5.025,15.466c3.941,3.562,9.97,5.341,18.087,5.341
			c5.648,0,10.714-0.774,15.201-2.324c4.487-1.552,8.259-3.835,11.313-6.852c2.097-2.038,3.805-4.408,5.13-7.108
			c1.321-2.7,2.702-7.065,4.142-13.097l8.364-35.459H332.456z"/>
		<path fill="#FFFFFF" d="M299.457,115.326c-8.246,0-14.479-1.854-18.525-5.51c-4.083-3.689-5.846-9.077-5.239-16.011
			c0.132-1.51,0.459-3.634,0.972-6.311c0.511-2.682,1.179-5.708,1.985-8.995l6.927-29.322h12.595l-8.853,37.428
			c-0.346,1.354-0.615,2.576-0.801,3.644c-0.191,1.089-0.324,2.049-0.395,2.855c-0.336,3.837,0.604,6.68,2.87,8.692
			c2.273,2.02,5.8,3.045,10.484,3.045c3.477,0,6.563-0.521,9.179-1.549c2.601-1.018,4.896-2.601,6.832-4.702
			c2.523-2.718,4.639-7.75,6.29-14.953c0.202-0.845,0.355-1.464,0.46-1.867l7.701-32.593h12.496l-8.556,36.264
			c-1.444,6.055-2.855,10.507-4.19,13.233c-1.353,2.761-3.122,5.213-5.26,7.29c-3.109,3.068-6.998,5.425-11.557,7.003
			C310.336,114.531,305.151,115.326,299.457,115.326z M286.612,50.486l-6.689,28.32c-0.803,3.27-1.466,6.273-1.973,8.934
			c-0.505,2.634-0.825,4.714-0.953,6.181c-0.569,6.502,1.05,11.524,4.812,14.925c3.798,3.431,9.735,5.172,17.647,5.172
			c5.549,0,10.591-0.77,14.988-2.289c4.373-1.513,8.096-3.766,11.066-6.698c2.033-1.977,3.715-4.309,5.002-6.932
			c1.293-2.639,2.669-7,4.093-12.96l8.175-34.652h-9.806l-7.466,31.596c-0.105,0.41-0.259,1.024-0.458,1.854
			c-1.7,7.424-3.923,12.657-6.604,15.544c-2.066,2.245-4.528,3.94-7.312,5.032c-2.767,1.086-6.017,1.639-9.657,1.639
			c-5.015,0-8.835-1.135-11.354-3.375c-2.562-2.273-3.674-5.566-3.305-9.787c0.073-0.841,0.211-1.84,0.408-2.966
			c0.192-1.1,0.469-2.355,0.82-3.73l8.469-35.806H286.612z"/>
		<path fill="#2C2B6A" d="M395.944,66.679c0.24-2.728-0.118-5.213-1.077-7.453c-0.956-2.24-2.454-4.109-4.5-5.603
			c-1.828-1.378-3.966-2.354-6.415-2.93c-2.449-0.573-6.515-0.861-12.196-0.861h-12.856l-14.876,63.077h11.057l6.458-27.015h2.58
			l16.479,27.015h12.562l-17.322-27.36c5.947-0.833,10.67-2.887,14.173-6.162C393.512,76.114,395.489,71.877,395.944,66.679z
			 M384.571,67.541c-0.333,3.792-1.831,6.461-4.501,8.013c-2.669,1.549-7.507,2.327-14.521,2.327h-2.239l4.59-19.043h1.803
			c6.167,0,10.255,0.646,12.272,1.938C383.988,62.069,384.852,64.324,384.571,67.541z"/>
		<path fill="#FFFFFF" d="M394.348,113.562h-14.117L363.75,86.548h-1.695l-6.458,27.014h-12.398l15.185-64.386h13.373
			c5.696,0,9.852,0.295,12.345,0.878c2.526,0.593,4.766,1.618,6.66,3.045c2.123,1.55,3.71,3.526,4.71,5.868
			c0.995,2.331,1.376,4.945,1.125,7.768c-0.468,5.34-2.531,9.757-6.139,13.128c-3.388,3.167-7.937,5.243-13.534,6.179
			L394.348,113.562z M380.965,112.254h11.005l-17.231-27.213l1.005-0.141c5.784-0.811,10.433-2.827,13.818-5.992
			c3.364-3.144,5.292-7.278,5.729-12.287c0.23-2.605-0.115-5.008-1.025-7.139c-0.907-2.123-2.35-3.916-4.285-5.33
			c-1.757-1.324-3.833-2.271-6.18-2.823c-2.396-0.56-6.449-0.844-12.046-0.844h-12.337l-14.566,61.768h9.711l6.458-27.015h3.463
			L380.965,112.254z M365.549,78.535h-3.07l4.904-20.353h2.319c6.351,0,10.48,0.667,12.625,2.042c2.225,1.43,3.199,3.91,2.895,7.375
			c-0.35,3.999-1.974,6.865-4.824,8.522C377.6,77.745,372.743,78.535,365.549,78.535z M364.141,77.226h1.408
			c6.86,0,11.634-0.753,14.191-2.239c2.495-1.45,3.86-3.904,4.178-7.504c0.261-2.981-0.491-4.996-2.299-6.157
			c-1.899-1.217-5.909-1.834-11.917-1.834h-1.289L364.141,77.226z"/>
		<polygon fill="#2C2B6A" points="296.535,24.682 236.508,24.682 234.349,33.774 258.714,33.774 240.013,113.918 251.264,113.918 
			269.965,33.774 294.325,33.774 		"/>
		<path fill="#FFFFFF" d="M251.784,114.572h-12.595l18.701-80.144h-24.37l2.471-10.401h61.377l-2.528,10.401h-24.354
			L251.784,114.572z M240.838,113.264h9.905l18.701-80.144h24.365l1.891-7.783h-58.676l-1.848,7.783h24.362L240.838,113.264z"/>
	</g>
	<g>
		<path fill="#2C2B6A" d="M47.264,180.91h-0.751v-1.854c-0.577-0.727-1.503-1.076-2.731-1.076c-1.077,0-1.979,0.324-2.73,1.002
			c-0.727,0.676-1.102,1.527-1.102,2.58c0,1.629,0.776,2.58,2.329,2.904l1.579,0.328c2.329,0.475,3.481,1.629,3.481,3.457
			c0,1.777-0.751,3.254-2.254,4.459c-1.377,1.125-2.98,1.678-4.81,1.678c-1.377,0-2.604-0.303-3.683-0.902
			c0.276-1.277,0.452-2.529,0.577-3.709h0.726v2.406c0.927,0.701,2.08,1.051,3.407,1.051c1.202,0,2.179-0.35,2.956-1.076
			c0.777-0.727,1.178-1.703,1.178-2.881c0-1.354-0.651-2.18-1.979-2.504l-2.305-0.553c-2.129-0.5-2.956-1.65-2.956-3.857
			c0-1.553,0.702-2.879,2.104-4.006c1.303-1.029,2.756-1.553,4.334-1.553c1.178,0,2.254,0.273,3.231,0.826
			C47.539,178.656,47.339,179.734,47.264,180.91z"/>
		<path fill="#2C2B6A" d="M70.614,192.133c-1.127,0.826-2.004,1.43-2.655,1.805c-0.551,0.326-0.952,0.477-1.228,0.477
			c-0.501,0-0.751-0.328-0.751-0.977c0-0.428,0.1-1.055,0.325-1.854l0.777-2.883l-0.1-0.025c-0.526,0.877-1.353,1.953-2.53,3.232
			c-1.553,1.703-2.831,2.555-3.833,2.555c-0.375,0-0.826-0.377-0.826-0.9c0-0.527,0.025-0.928,0.1-1.254l1.377-6.562
			c0.125-0.627,0.201-0.977,0.201-1.051c0-0.354-0.15-0.527-0.452-0.527c-0.125,0-0.551,0.225-1.227,0.652l-0.676,0.424
			l-0.175-0.475l0.676-0.502c1.628-1.201,2.68-1.803,3.207-1.803c0.375,0,0.576,0.273,0.576,0.826c0,0.277-0.05,0.602-0.125,0.977
			l-1.403,6.59c-0.1,0.475-0.15,0.9-0.15,1.301c0,0.402,0.1,0.602,0.3,0.602c0.325,0,0.676-0.125,1.052-0.402
			c0.751-0.523,1.528-1.301,2.329-2.277c0.877-1.053,1.453-2.004,1.778-2.881c0.426-1.129,0.702-2.154,0.877-3.082l0.226-1.227
			l1.653-0.426l0.175,0.227c-0.852,3.23-1.528,6.135-2.029,8.664c-0.1,0.502-0.15,0.828-0.15,0.98c0,0.273,0.1,0.424,0.326,0.424
			c0.351,0,0.852-0.225,1.478-0.652l0.626-0.424L70.614,192.133z"/>
		<path fill="#2C2B6A" d="M123.976,176.754l-0.125,0.777h-2.354l-3.357,15.729h2.355l-0.175,0.777h-7.214l0.175-0.777h2.355
			l3.131-14.803l-9.343,15.305l-0.275,0.025l-2.305-15.23l-2.655,12.525c-0.175,0.877-0.101,1.504,0.226,1.928
			c0.125,0.178,0.676,0.25,1.653,0.25l-0.175,0.777h-5.637l0.176-0.777c0.927,0,1.478-0.072,1.678-0.225
			c0.577-0.426,0.953-1.076,1.128-1.953l2.755-13.002c0.05-0.375-0.15-0.549-0.601-0.549h-1.403l0.125-0.777h4.959l1.804,12.924
			l7.841-12.924H123.976z"/>
		<path fill="#2C2B6A" d="M142.869,192.059c-1.803,1.527-2.981,2.279-3.507,2.279c-0.426,0-0.626-0.273-0.626-0.801
			c0-0.428,0.05-0.852,0.15-1.305l0.651-2.904l-0.075-0.025c-1.303,1.93-2.505,3.307-3.633,4.135
			c-0.876,0.627-1.502,0.951-1.903,0.951c-0.551,0-0.827-0.678-0.827-2.053c0-1.254,0.326-2.809,0.952-4.686
			c0.651-1.955,1.328-3.184,2.004-3.658c0.927-0.676,1.603-1.102,2.079-1.301c0.476-0.203,1.002-0.303,1.628-0.303
			c0.526,0,1.177,0.15,1.953,0.477l0.802-0.451l0.25,0.225l-2.229,9.219c-0.125,0.553-0.025,0.828,0.325,0.828
			c0.501,0,1.203-0.627,1.829-1.152L142.869,192.059z M138.711,183.59c-0.726,0-1.278,0.203-1.653,0.604
			c-0.276,0.299-0.577,0.875-0.902,1.703c-0.877,2.305-1.303,4.184-1.303,5.637c0,0.775,0.15,1.152,0.451,1.152
			c0.702,0,1.754-0.953,3.182-2.855c1.052-1.404,1.804-3.332,2.254-5.787C139.838,183.742,139.162,183.59,138.711,183.59z"/>
		<path fill="#2C2B6A" d="M164.64,182.691l-3.406,10.695c-0.626,1.953-1.428,3.582-2.456,4.859
			c-1.402,1.777-2.805,2.654-4.208,2.654c-1.103,0-2.03-0.826-2.03-1.953c0-0.125,0-0.25,0.025-0.375l1.178-0.826l0.225,0.074
			c-0.025,0.15-0.025,0.301-0.025,0.449c0,0.979,0.627,1.604,1.503,1.604c1.077,0,2.029-0.801,2.806-2.404
			c0.476-0.951,0.927-2.178,1.353-3.682l1.127-3.932l-0.05-0.051c-0.525,0.824-1.228,1.729-2.054,2.656
			c-1.178,1.326-2.029,2.002-2.555,2.002c-0.326,0-0.602-0.174-0.827-0.502c-0.176-0.273-0.275-0.6-0.275-0.977
			c0-0.574,0-1.002,0.025-1.227l0.426-5.912c0.076-1.076-0.1-1.629-0.526-1.629c-0.075,0-0.275,0.102-0.651,0.328l-1.152,0.699
			l-0.275-0.424l1.978-1.379c0.927-0.65,1.553-0.977,1.829-0.977c0.426,0,0.626,0.576,0.626,1.729c0,0.551-0.051,1.277-0.125,2.18
			l-0.376,4.709c-0.075,0.977,0.101,1.479,0.477,1.479c0.5,0,1.653-0.977,2.555-2.307c0.927-1.375,1.578-2.729,1.954-4.107
			l0.852-3.205c0.5-0.051,1.102-0.203,1.803-0.477L164.64,182.691z"/>
		<path fill="#2C2B6A" d="M183.556,189.328c-0.376,1.102-0.877,2.053-1.503,2.83c-1.002,1.279-2.781,2.23-4.309,2.23
			c-2.129,0-3.206-1.305-3.206-3.908c0-3.33,1.328-6.061,3.907-7.389c0.902-0.479,1.729-0.703,2.456-0.703
			c1.077,0,1.903,0.377,2.479,1.102c0.501,0.652,0.751,1.529,0.751,2.656C184.132,187.172,183.931,188.227,183.556,189.328z
			 M180.024,183.316c-0.626,0-1.127,0.148-1.478,0.426c-0.676,0.525-1.203,1.555-1.628,3.08c-0.351,1.279-0.526,2.455-0.526,3.533
			c0,2.08,0.752,3.105,2.28,3.105c0.726,0,1.303-0.273,1.778-0.801c0.576-0.678,1.052-1.654,1.378-2.93
			c0.3-1.129,0.451-2.23,0.451-3.307C182.278,184.342,181.526,183.316,180.024,183.316z"/>
		<path fill="#2C2B6A" d="M202.973,185.17h-0.351c-0.2-0.301-0.5-0.451-0.901-0.451c-0.476,0-1.127,0.525-1.979,1.58
			c-0.978,1.201-1.654,2.754-2.08,4.684l-0.625,2.904c-0.702,0.125-1.253,0.252-1.629,0.377l-0.225-0.178
			c0.676-2.127,1.277-4.707,1.778-7.738l0.05-0.301c0.125-0.75,0.176-1.252,0.176-1.502c0-0.352-0.15-0.527-0.426-0.527
			c-0.15,0-0.576,0.225-1.252,0.652l-0.676,0.424l-0.175-0.475l0.676-0.502c1.628-1.201,2.68-1.803,3.206-1.803
			c0.401,0,0.601,0.275,0.601,0.801c0,0.275-0.05,0.602-0.15,1.002c-0.275,1.127-0.526,2.281-0.726,3.457l0.05,0.051
			c0.251-0.578,0.852-1.555,1.778-2.881c0.577-0.801,0.953-1.328,1.153-1.553c0.551-0.578,1.102-0.877,1.628-0.877
			c0.125,0,0.275,0.049,0.476,0.15C203.172,183.516,203.047,184.42,202.973,185.17z"/>
		<path fill="#2C2B6A" d="M218.732,192.107c-1.127,0.828-2.004,1.43-2.655,1.805c-0.551,0.326-0.952,0.477-1.203,0.477
			c-0.526,0-0.776-0.324-0.776-0.977c0-0.453,0.1-1.076,0.326-1.854l1.604-5.838c0.125-0.477,0.2-0.826,0.2-1.051
			c0-0.377-0.15-0.578-0.451-0.578c-0.075,0-0.501,0.227-1.227,0.703l-0.677,0.424l-0.175-0.475l0.676-0.502
			c1.628-1.201,2.68-1.803,3.207-1.803c0.425,0,0.651,0.225,0.651,0.676c0,0.225-0.05,0.5-0.125,0.852l-1.879,7.365
			c-0.125,0.477-0.175,0.801-0.175,0.977c0,0.326,0.1,0.502,0.325,0.502c0.275,0,0.752-0.25,1.478-0.727l0.626-0.426
			L218.732,192.107z M217.98,179.484c-0.651,0-0.977-0.35-0.977-1.053c0-0.775,0.676-1.578,1.402-1.578
			c0.501,0,0.877,0.426,0.877,0.928C219.283,178.781,218.757,179.484,217.98,179.484z"/>
		<path fill="#2C2B6A" d="M237.321,185.82h-0.551v-1.328c-0.175-0.324-0.501-0.6-1.002-0.824c-0.426-0.178-0.852-0.277-1.277-0.277
			c-0.677,0-1.253,0.199-1.729,0.627c-0.526,0.428-0.776,0.951-0.776,1.629c0,0.574,0.2,1.002,0.575,1.275
			c0.251,0.176,0.702,0.303,1.328,0.428l1.052,0.199c1.729,0.326,2.581,1.102,2.581,2.307c0,1.201-0.577,2.252-1.754,3.129
			c-1.253,0.953-2.43,1.43-3.532,1.43c-0.877,0-1.753-0.225-2.604-0.678c0.25-1.025,0.426-2.078,0.525-3.207h0.602v2.057
			c0.626,0.574,1.377,0.852,2.255,0.852c1.703,0,2.88-0.977,2.88-2.656c0-1.029-0.426-1.379-1.452-1.578l-1.528-0.303
			c-1.578-0.299-2.355-1.125-2.355-2.453c0-0.826,0.302-1.553,0.877-2.129c1.278-1.277,2.556-1.904,3.883-1.904
			c0.827,0,1.653,0.225,2.48,0.678C237.572,184.217,237.397,185.119,237.321,185.82z"/>
		<path fill="#2C2B6A" d="M255.134,184.57h-2.604c-0.728,3.631-1.128,5.834-1.253,6.637c-0.075,0.477-0.1,0.801-0.1,0.977
			c0,0.326,0.1,0.502,0.325,0.502c0.275,0,0.776-0.25,1.478-0.727l1.077-0.752l0.251,0.426c-1.127,0.902-2.279,1.879-3.057,2.254
			c-0.525,0.252-0.951,0.377-1.277,0.377c-0.501,0-0.751-0.326-0.751-0.977c0-0.127,0.1-0.752,0.325-1.855l1.354-6.861h-2.03
			l0.051-0.328c0.476-0.125,1.202-0.424,2.129-0.902l0.602-4.131c0.676-0.227,1.327-0.527,1.904-0.879l0.275,0.377
			c-0.352,1.027-0.728,2.605-1.103,4.783c0.877,0,1.778-0.049,2.68-0.15L255.134,184.57z"/>
		<path fill="#2C2B6A" d="M275.653,192.059c-1.804,1.527-2.98,2.279-3.507,2.279c-0.426,0-0.627-0.273-0.627-0.801
			c0-0.428,0.051-0.852,0.15-1.305l0.651-2.904l-0.074-0.025c-1.303,1.93-2.506,3.307-3.633,4.135
			c-0.877,0.627-1.503,0.951-1.903,0.951c-0.552,0-0.827-0.678-0.827-2.053c0-1.254,0.325-2.809,0.952-4.686
			c0.651-1.955,1.327-3.184,2.004-3.658c0.927-0.676,1.604-1.102,2.079-1.301c0.476-0.203,1.002-0.303,1.628-0.303
			c0.526,0,1.178,0.15,1.954,0.477l0.802-0.451l0.25,0.225l-2.229,9.219c-0.126,0.553-0.026,0.828,0.325,0.828
			c0.501,0,1.202-0.627,1.829-1.152L275.653,192.059z M271.495,183.59c-0.727,0-1.278,0.203-1.653,0.604
			c-0.275,0.299-0.576,0.875-0.901,1.703c-0.877,2.305-1.303,4.184-1.303,5.637c0,0.775,0.149,1.152,0.45,1.152
			c0.702,0,1.754-0.953,3.182-2.855c1.052-1.404,1.804-3.332,2.254-5.787C272.622,183.742,271.945,183.59,271.495,183.59z"/>
		<path fill="#2C2B6A" d="M316.69,176.604l-3.056,14.254c-0.125,0.623-0.199,1.076-0.199,1.301c0,0.377,0.125,0.553,0.351,0.553
			c0.199,0,0.501-0.15,0.926-0.428l1.079-0.75l0.225,0.475l-1.953,1.453c-0.829,0.604-1.404,0.902-1.754,0.902
			c-0.477,0-0.703-0.277-0.703-0.801c0-0.678,0.125-1.504,0.375-2.48l0.502-1.953l-0.101-0.025
			c-1.002,1.578-2.027,2.855-3.106,3.807c-1.102,1.002-2.053,1.504-2.855,1.504c-0.727,0-1.077-0.852-1.077-2.58
			c0-1.18,0.177-2.381,0.527-3.658c0.55-1.902,1.402-3.281,2.554-4.158c0.903-0.678,1.453-1.051,1.681-1.176
			c0.476-0.277,1.024-0.428,1.603-0.428c0.675,0,1.327,0.125,1.954,0.352l0.8-4.984c-0.398,0.174-1.076,0.225-2.027,0.174
			l0.074-0.602c0.726-0.051,1.378-0.15,1.953-0.301c0.652-0.148,1.304-0.398,1.931-0.727L316.69,176.604z M313.435,184.168
			c-0.703-0.375-1.555-0.553-2.58-0.553c-0.626,0-1.104,0.127-1.454,0.377c-0.627,0.428-1.177,1.529-1.653,3.258
			c-0.426,1.604-0.65,3.055-0.65,4.355c0,0.73,0.225,1.105,0.676,1.105c0.476,0,1.229-0.479,2.229-1.404
			c1.629-1.529,2.656-3.404,3.132-5.686L313.435,184.168z"/>
		<path fill="#2C2B6A" d="M332.625,187.875c-0.376,0.174-0.926,0.377-1.654,0.602l-2.002,0.477
			c-0.125,0.678-0.202,1.352-0.202,2.053c0,1.529,0.652,2.281,1.956,2.281c0.875,0,1.954-0.477,3.229-1.404l0.578-0.424l0.199,0.475
			c-2.03,1.678-3.634,2.506-4.835,2.506c-1.979,0-2.956-1.027-2.956-3.107c0-1.002,0.251-2.328,0.752-3.982
			c0.401-1.328,1.002-2.305,1.803-2.93c1.705-1.328,3.058-1.98,4.034-1.98c1.202,0,2.128,0.676,2.128,1.854
			C335.655,185.82,334.655,187.025,332.625,187.875z M332.625,183.465c-0.324,0-0.7,0.104-1.127,0.303
			c-0.926,0.426-1.652,1.676-2.179,3.732l-0.226,0.9c1.025-0.225,1.928-0.498,2.654-0.852c1.103-0.502,2.104-1.678,2.104-2.805
			C333.852,183.893,333.451,183.465,332.625,183.465z"/>
		<path fill="#2C2B6A" d="M384.836,176.779l-0.151,0.775c-0.877-0.023-1.503,0.051-1.854,0.275
			c-0.526,0.326-1.179,1.127-1.928,2.406l-8.469,14.326h-0.825l-2.304-17.008h-1.88l0.151-0.775h6.336l-0.151,0.775h-2.002
			l1.752,13.252l6.39-10.57c0.601-0.977,0.899-1.705,0.899-2.182c0-0.1-0.022-0.174-0.048-0.25c-0.077-0.174-0.578-0.25-1.555-0.25
			l0.15-0.775H384.836z"/>
		<path fill="#2C2B6A" d="M396.713,192.107c-1.128,0.828-2.005,1.43-2.657,1.805c-0.55,0.326-0.951,0.477-1.201,0.477
			c-0.527,0-0.777-0.324-0.777-0.977c0-0.453,0.1-1.076,0.327-1.854l1.604-5.838c0.125-0.477,0.199-0.826,0.199-1.051
			c0-0.377-0.151-0.578-0.45-0.578c-0.076,0-0.501,0.227-1.228,0.703l-0.678,0.424l-0.174-0.475l0.676-0.502
			c1.628-1.201,2.68-1.803,3.206-1.803c0.427,0,0.652,0.225,0.652,0.676c0,0.225-0.052,0.5-0.126,0.852l-1.879,7.365
			c-0.125,0.477-0.177,0.801-0.177,0.977c0,0.326,0.103,0.502,0.327,0.502c0.276,0,0.752-0.25,1.479-0.727l0.626-0.426
			L396.713,192.107z M395.961,179.484c-0.652,0-0.977-0.35-0.977-1.053c0-0.775,0.675-1.578,1.401-1.578
			c0.501,0,0.877,0.426,0.877,0.928C397.263,178.781,396.739,179.484,395.961,179.484z"/>
		<path fill="#2C2B6A" d="M417.306,192.059c-1.805,1.527-2.981,2.279-3.508,2.279c-0.425,0-0.627-0.273-0.627-0.801
			c0-0.428,0.052-0.852,0.151-1.305l0.652-2.904l-0.077-0.025c-1.302,1.93-2.503,3.307-3.631,4.135
			c-0.877,0.627-1.503,0.951-1.904,0.951c-0.55,0-0.826-0.678-0.826-2.053c0-1.254,0.324-2.809,0.951-4.686
			c0.651-1.955,1.327-3.184,2.004-3.658c0.926-0.676,1.604-1.102,2.079-1.301c0.476-0.203,1.003-0.303,1.629-0.303
			c0.526,0,1.176,0.15,1.953,0.477l0.803-0.451l0.251,0.225l-2.229,9.219c-0.125,0.553-0.025,0.828,0.324,0.828
			c0.502,0,1.202-0.627,1.829-1.152L417.306,192.059z M413.146,183.59c-0.726,0-1.275,0.203-1.651,0.604
			c-0.276,0.299-0.575,0.875-0.902,1.703c-0.877,2.305-1.302,4.184-1.302,5.637c0,0.775,0.15,1.152,0.45,1.152
			c0.7,0,1.754-0.953,3.181-2.855c1.054-1.404,1.805-3.332,2.255-5.787C414.274,183.742,413.599,183.59,413.146,183.59z"/>
		<path fill="#2C2B6A" d="M430.735,192.336c-0.376,1.676-0.7,3.055-0.999,4.08c-0.276,0.953-0.703,1.854-1.253,2.73
			c-0.678,1.08-1.33,1.604-1.954,1.604c-0.478,0-0.828-0.049-1.053-0.174l0.199-1.379c0.501,0.299,0.928,0.451,1.304,0.451
			c0.476,0,0.852-0.701,1.128-2.105l2.403-11.947c0.125-0.676,0.202-1.025,0.202-1.051c0-0.377-0.151-0.578-0.453-0.578
			c-0.074,0-0.501,0.227-1.227,0.703l-0.676,0.424l-0.176-0.475l0.677-0.502c1.627-1.201,2.68-1.803,3.207-1.803
			c0.424,0,0.626,0.225,0.626,0.652c0,0.199-0.051,0.498-0.125,0.875L430.735,192.336z M432.315,179.359
			c-0.651,0-0.977-0.352-0.977-1.055c0-0.773,0.675-1.576,1.401-1.576c0.501,0,0.877,0.426,0.877,0.928
			C433.617,178.656,433.09,179.359,432.315,179.359z"/>
		<path fill="#2C2B6A" d="M449.526,187.875c-0.376,0.174-0.926,0.377-1.654,0.602l-2.002,0.477
			c-0.126,0.678-0.202,1.352-0.202,2.053c0,1.529,0.652,2.281,1.956,2.281c0.874,0,1.953-0.477,3.229-1.404l0.577-0.424l0.2,0.475
			c-2.03,1.678-3.634,2.506-4.836,2.506c-1.979,0-2.955-1.027-2.955-3.107c0-1.002,0.25-2.328,0.752-3.982
			c0.401-1.328,1.002-2.305,1.802-2.93c1.706-1.328,3.059-1.98,4.035-1.98c1.202,0,2.127,0.676,2.127,1.854
			C452.555,185.82,451.556,187.025,449.526,187.875z M449.526,183.465c-0.325,0-0.701,0.104-1.128,0.303
			c-0.926,0.426-1.651,1.676-2.179,3.732l-0.225,0.9c1.025-0.225,1.928-0.498,2.654-0.852c1.102-0.502,2.104-1.678,2.104-2.805
			C450.753,183.893,450.351,183.465,449.526,183.465z"/>
		<path fill="#2C2B6A" d="M470.546,185.82h-0.553v-1.328c-0.177-0.324-0.501-0.6-1.002-0.824c-0.425-0.178-0.852-0.277-1.279-0.277
			c-0.675,0-1.25,0.199-1.729,0.627c-0.523,0.428-0.774,0.951-0.774,1.629c0,0.574,0.199,1.002,0.575,1.275
			c0.251,0.176,0.701,0.303,1.327,0.428l1.054,0.199c1.729,0.326,2.58,1.102,2.58,2.307c0,1.201-0.575,2.252-1.754,3.129
			c-1.253,0.953-2.43,1.43-3.531,1.43c-0.877,0-1.754-0.225-2.605-0.678c0.25-1.025,0.424-2.078,0.526-3.207h0.601v2.057
			c0.627,0.574,1.379,0.852,2.253,0.852c1.705,0,2.882-0.977,2.882-2.656c0-1.029-0.425-1.379-1.452-1.578l-1.529-0.303
			c-1.577-0.299-2.354-1.125-2.354-2.453c0-0.826,0.301-1.553,0.877-2.129c1.278-1.277,2.557-1.904,3.884-1.904
			c0.825,0,1.651,0.225,2.479,0.678C470.793,184.217,470.62,185.119,470.546,185.82z"/>
	</g>
</g>
</svg>
